<svg width="20" height="22" viewBox="0 0 20 22" fill="none" xmlns="http://www.w3.org/2000/svg">
<path d="M7.99884 0.970703C8.76394 0.970658 9.50014 1.27764 10.0568 1.82885C10.6135 2.38006 10.9485 3.13382 10.9934 3.9359L10.9984 4.1207V5.1707H13.998C14.5025 5.17054 14.9884 5.37063 15.3583 5.73087C15.7283 6.09112 15.9549 6.58489 15.9927 7.1132L15.9977 7.2707V10.4207H16.9975C17.7783 10.4199 18.5287 10.7389 19.0891 11.3098C19.6495 11.8808 19.9758 12.6587 19.9987 13.4783C20.0216 14.2979 19.7393 15.0945 19.2118 15.699C18.6842 16.3035 17.953 16.6681 17.1735 16.7155L16.9975 16.7207H15.9977V19.8707C15.9978 20.4005 15.8073 20.9108 15.4643 21.2993C15.1212 21.6878 14.651 21.9257 14.148 21.9655L13.998 21.9707H10.9984C10.4939 21.9709 10.008 21.7708 9.63806 21.4105C9.26813 21.0503 9.04154 20.5565 9.0037 20.0282L8.9987 19.8707V18.8207C8.99842 18.5531 8.90083 18.2957 8.72589 18.1011C8.55095 17.9065 8.31185 17.7894 8.05744 17.7737C7.80304 17.758 7.55253 17.8449 7.3571 18.0167C7.16168 18.1884 7.03609 18.4321 7.00599 18.6979L6.99899 18.8207V19.8707C6.99915 20.4005 6.80861 20.9108 6.46557 21.2993C6.12253 21.6878 5.65234 21.9257 5.14926 21.9655L4.99928 21.9707H1.99971C1.49521 21.9709 1.00929 21.7708 0.63936 21.4105C0.269432 21.0503 0.0428372 20.5565 0.00499949 20.0282L1.00254e-07 19.8707V16.7207C-0.000159556 16.1909 0.190379 15.6806 0.53342 15.2921C0.876461 14.9036 1.34665 14.6657 1.84973 14.626L1.99971 14.6207H2.99957C3.25441 14.6204 3.49953 14.5179 3.68484 14.3342C3.87015 14.1505 3.98166 13.8994 3.99659 13.6322C4.01153 13.3651 3.92876 13.102 3.76519 12.8968C3.60162 12.6916 3.36961 12.5597 3.11655 12.5281L2.99957 12.5207H1.99971C1.49521 12.5209 1.00929 12.3208 0.63936 11.9605C0.269432 11.6003 0.0428372 11.1065 0.00499949 10.5782L1.00254e-07 10.4207V7.2707C-0.000159556 6.7409 0.190379 6.23061 0.53342 5.84213C0.876461 5.45365 1.34665 5.21569 1.84973 5.17595L1.99971 5.1707H4.99928V4.1207C4.99928 3.28527 5.3153 2.48406 5.87783 1.89332C6.44036 1.30258 7.20331 0.970703 7.99884 0.970703Z" fill="url(#paint0_linear_39_71)"/>
<defs>
<linearGradient id="paint0_linear_39_71" x1="15.125" y1="4" x2="14.125" y2="25.5" gradientUnits="userSpaceOnUse">
<stop stop-color="#7D5A5A"/>
<stop offset="1" stop-color="#FFF5E4"/>
</linearGradient>
</defs>
</svg>
