<svg width="450" height="450" viewBox="0 0 450 450" fill="none" xmlns="http://www.w3.org/2000/svg">
<g filter="url(#filter0_d_100_3531)">
<path d="M77.6151 147.089C121.557 118.498 147.202 111.549 155.705 110.54C156.726 110.419 157.72 110.233 158.693 109.899C183.583 101.365 235.96 96.1514 289.806 122.873C291.061 123.496 292.44 123.858 293.834 123.991C319.116 126.401 338.418 147.312 349.564 156.432C384.057 184.653 422.424 195.081 428.734 203.079C429.669 204.264 430.017 205.83 430.733 207.159C444.693 233.065 446.334 248.87 437.706 275.944C437.195 277.549 436.26 278.991 435.023 280.135C413.999 299.583 401.141 310.747 366.118 318.763C365.312 318.947 364.505 319.235 363.765 319.606C334.97 334.02 318.187 337.393 289.483 334.942C288.178 334.83 286.853 334.965 285.602 335.349C268.36 340.651 259.124 343.292 247.287 345.236C242.29 346.056 237.575 342.801 236.347 337.889L234.429 330.217C234.145 329.081 233.664 328.004 233.007 327.034L227.068 318.268C224.91 315.082 224.895 310.908 227.029 307.706L227.332 307.252C229.253 304.37 229.268 300.62 227.37 297.723L223.74 292.182C220.111 286.643 211.5 289.213 211.5 295.835V297.678C211.5 300.341 209.341 302.5 206.678 302.5C203.005 302.5 200.681 306.442 202.459 309.656L205.456 315.075C208.171 319.982 204.622 326 199.015 326C197.385 326 195.8 326.541 194.511 327.539L172.607 344.483C170.914 345.793 168.838 346.533 166.697 346.549C135.966 346.771 145.206 339.566 110.891 319.041C82.841 306.158 61.85 305.127 46.831 276.156C45.1275 272.87 41.9115 270.618 38.2479 270.09C31.6444 269.139 25.9852 267.345 17.6733 263.903C15.7572 263.11 14.124 261.736 13.1714 259.894C0.843888 236.053 2.46642 189.131 33.5037 166.787C43.7816 157.252 61.7458 150.682 73.3402 148.718C74.8522 148.462 76.3297 147.926 77.6151 147.089Z" fill="url(#paint0_radial_100_3531)"/>
<path fill-rule="evenodd" clip-rule="evenodd" d="M198.75 192.375C198.75 190.419 197.973 188.543 196.59 187.16C195.207 185.777 193.331 185 191.375 185C189.419 185 187.543 185.777 186.16 187.16C184.777 188.543 184 190.419 184 192.375V199.75C184 201.706 184.777 203.582 186.16 204.965C187.543 206.348 189.419 207.125 191.375 207.125C193.331 207.125 195.207 206.348 196.59 204.965C197.973 203.582 198.75 201.706 198.75 199.75V192.375ZM257.75 185C255.794 185 253.918 185.777 252.535 187.16C251.152 188.543 250.375 190.419 250.375 192.375V199.75C250.375 201.706 251.152 203.582 252.535 204.965C253.918 206.348 255.794 207.125 257.75 207.125C259.706 207.125 261.582 206.348 262.965 204.965C264.348 203.582 265.125 201.706 265.125 199.75V192.375C265.125 190.419 264.348 188.543 262.965 187.16C261.582 185.777 259.706 185 257.75 185ZM202.438 258.75C202.438 252.882 204.769 247.255 208.918 243.105C213.067 238.956 218.695 236.625 224.562 236.625C230.43 236.625 236.058 238.956 240.207 243.105C244.356 247.255 246.688 252.882 246.688 258.75C246.688 260.706 247.465 262.582 248.848 263.965C250.231 265.348 252.107 266.125 254.062 266.125C256.018 266.125 257.894 265.348 259.277 263.965C260.66 262.582 261.438 260.706 261.438 258.75C261.438 238.384 244.929 221.875 224.562 221.875C204.196 221.875 187.688 238.384 187.688 258.75C187.688 260.706 188.465 262.582 189.848 263.965C191.231 265.348 193.107 266.125 195.062 266.125C197.018 266.125 198.894 265.348 200.277 263.965C201.66 262.582 202.438 260.706 202.438 258.75Z" fill="#774646"/>
</g>
<defs>
<filter id="filter0_d_100_3531" x="2" y="103" width="445" height="251.554" filterUnits="userSpaceOnUse" color-interpolation-filters="sRGB">
<feFlood flood-opacity="0" result="BackgroundImageFix"/>
<feColorMatrix in="SourceAlpha" type="matrix" values="0 0 0 0 0 0 0 0 0 0 0 0 0 0 0 0 0 0 127 0" result="hardAlpha"/>
<feOffset dy="4"/>
<feGaussianBlur stdDeviation="2"/>
<feComposite in2="hardAlpha" operator="out"/>
<feColorMatrix type="matrix" values="0 0 0 0 0.937255 0 0 0 0 0.85098 0 0 0 0 0.85098 0 0 0 1 0"/>
<feBlend mode="normal" in2="BackgroundImageFix" result="effect1_dropShadow_100_3531"/>
<feBlend mode="normal" in="SourceGraphic" in2="effect1_dropShadow_100_3531" result="shape"/>
</filter>
<radialGradient id="paint0_radial_100_3531" cx="0" cy="0" r="1" gradientTransform="matrix(218.5 -56.631 100.193 387.405 224.5 226.5)" gradientUnits="userSpaceOnUse">
<stop stop-color="#EDB96A"/>
<stop offset="0.485577" stop-color="#E6A530"/>
<stop offset="1" stop-color="#7F3704"/>
</radialGradient>
</defs>
</svg>
