<svg width="22" height="20" viewBox="0 0 22 20" fill="none" xmlns="http://www.w3.org/2000/svg">
<path d="M13.2222 5.44444V3.22222C13.2222 2.63285 12.9881 2.06762 12.5713 1.65087C12.1546 1.23413 11.5894 1 11 1H3.22222C2.63285 1 2.06762 1.23413 1.65087 1.65087C1.23413 2.06762 1 2.63285 1 3.22222V16.5556C1 17.1449 1.23413 17.7102 1.65087 18.1269C2.06762 18.5437 2.63285 18.7778 3.22222 18.7778H11C11.5894 18.7778 12.1546 18.5437 12.5713 18.1269C12.9881 17.7102 13.2222 17.1449 13.2222 16.5556V14.3333" stroke="url(#paint0_linear_143_3309)" stroke-width="2" stroke-linecap="round" stroke-linejoin="round"/>
<path d="M7.6665 9.889H20.9998L17.6665 6.55566M17.6665 13.2223L20.9998 9.889Z" fill="url(#paint1_linear_143_3309)"/>
<path d="M7.6665 9.889H20.9998M20.9998 9.889L17.6665 6.55566M20.9998 9.889L17.6665 13.2223" stroke="url(#paint2_linear_143_3309)" stroke-width="2" stroke-linecap="round" stroke-linejoin="round"/>
<defs>
<linearGradient id="paint0_linear_143_3309" x1="8.02766" y1="1" x2="6.19456" y2="18.7778" gradientUnits="userSpaceOnUse">
<stop stop-color="#7D5A5A"/>
<stop offset="1" stop-color="#FFF5E4"/>
</linearGradient>
<linearGradient id="paint1_linear_143_3309" x1="14.9639" y1="6.55566" x2="14.5617" y2="13.2738" gradientUnits="userSpaceOnUse">
<stop stop-color="white"/>
<stop offset="1" stop-color="#999999"/>
</linearGradient>
<linearGradient id="paint2_linear_143_3309" x1="14.7112" y1="6.55566" x2="13.9552" y2="13.2223" gradientUnits="userSpaceOnUse">
<stop stop-color="#7D5A5A"/>
<stop offset="1" stop-color="#FFF5E4"/>
</linearGradient>
</defs>
</svg>
