<svg width="181" height="118" viewBox="0 0 181 118" fill="none" xmlns="http://www.w3.org/2000/svg">
<g clip-path="url(#clip0_46_89)">
<path d="M87.45 38.8V52.1C87.45 53.9 87.8167 55.3167 88.55 56.35C89.3167 57.35 90.35 57.85 91.65 57.85C92.95 57.85 94 57.4167 94.8 56.55C95.6333 55.6833 96.05 54.35 96.05 52.55V41.7C96.05 41.1333 96 40.7167 95.9 40.45C95.8 40.1833 95.6 39.95 95.3 39.75C95.0333 39.5833 94.7667 39.4833 94.5 39.45C94.2667 39.3833 94.05 39.3333 93.85 39.3C93.6833 39.2333 93.5333 39.1667 93.4 39.1C93.3 39 93.25 38.8167 93.25 38.55C93.25 37.9833 93.5333 37.7 94.1 37.7C94.4333 37.7 94.8833 37.7667 95.45 37.9C96.05 38 96.7833 38.05 97.65 38.05C98.1167 38.05 98.4833 38.0333 98.75 38C99.05 37.9667 99.2833 37.95 99.45 37.95C99.7833 37.95 99.9833 38.0167 100.05 38.15C100.15 38.2833 100.2 38.5 100.2 38.8V55.65C100.2 56.5167 100.317 57.1 100.55 57.4C100.783 57.6667 101.033 57.8333 101.3 57.9C101.6 57.9667 101.867 58.0167 102.1 58.05C102.333 58.05 102.45 58.2167 102.45 58.55C102.45 58.8833 102.283 59.1333 101.95 59.3C101.617 59.4667 101.15 59.65 100.55 59.85C98.4167 60.5833 97.1833 60.95 96.85 60.95C96.45 60.95 96.25 60.6 96.25 59.9V57.85C96.25 57.3833 96.2 57.15 96.1 57.15C95.9667 57.15 95.8167 57.2667 95.65 57.5L95.15 58.15C94.4833 58.9833 93.6833 59.6333 92.75 60.1C91.8167 60.5667 90.85 60.8 89.85 60.8C87.85 60.8 86.25 60.1333 85.05 58.8C83.85 57.4333 83.25 55.6 83.25 53.3V41.7C83.25 40.9 83.1 40.35 82.8 40.05C82.5 39.75 82.1667 39.55 81.8 39.45C81.4667 39.35 81.15 39.2667 80.85 39.2C80.5833 39.1333 80.45 38.9167 80.45 38.55C80.45 38.0167 80.75 37.75 81.35 37.75C81.7833 37.75 82.2833 37.8167 82.85 37.95C83.45 38.05 84.1333 38.1 84.9 38.1C85.3333 38.1 85.7 38.0833 86 38.05C86.3 37.9833 86.5333 37.95 86.7 37.95C87.0333 37.95 87.2333 38.0167 87.3 38.15C87.4 38.2833 87.45 38.5 87.45 38.8ZM111.129 34.3V37.35C111.129 37.7833 111.346 38 111.779 38H115.529C115.829 38 116.013 38.0333 116.079 38.1C116.146 38.1667 116.179 38.3 116.179 38.5V39.5C116.179 39.7667 116.146 39.95 116.079 40.05C116.013 40.15 115.829 40.2 115.529 40.2H111.729C111.329 40.2 111.129 40.4167 111.129 40.85V53.5C111.129 55.0667 111.263 56.2167 111.529 56.95C111.829 57.65 112.363 58 113.129 58C113.496 58 113.813 57.9333 114.079 57.8C114.379 57.6667 114.646 57.5167 114.879 57.35C115.113 57.15 115.313 56.9833 115.479 56.85C115.679 56.7167 115.863 56.65 116.029 56.65C116.363 56.65 116.529 56.8833 116.529 57.35C116.529 57.5833 116.379 57.9 116.079 58.3C115.779 58.7 115.363 59.1 114.829 59.5C114.329 59.9 113.729 60.2333 113.029 60.5C112.363 60.8 111.646 60.95 110.879 60.95C108.213 60.95 106.879 58.8333 106.879 54.6V52.5L107.079 41.75C107.079 41.2833 107.046 40.9167 106.979 40.65C106.913 40.35 106.713 40.2 106.379 40.2H105.479C104.879 40.2 104.579 39.9833 104.579 39.55C104.579 39.35 104.663 39.1667 104.829 39C104.996 38.8333 105.229 38.65 105.529 38.45C105.829 38.25 106.163 38 106.529 37.7C106.929 37.4 107.363 37 107.829 36.5C108.629 35.5667 109.213 34.7667 109.579 34.1C109.979 33.4333 110.329 33.1 110.629 33.1C110.863 33.1 110.996 33.2167 111.029 33.45C111.096 33.65 111.129 33.9333 111.129 34.3ZM124.118 34.3V37.35C124.118 37.7833 124.334 38 124.768 38H128.518C128.818 38 129.001 38.0333 129.068 38.1C129.134 38.1667 129.168 38.3 129.168 38.5V39.5C129.168 39.7667 129.134 39.95 129.068 40.05C129.001 40.15 128.818 40.2 128.518 40.2H124.718C124.318 40.2 124.118 40.4167 124.118 40.85V53.5C124.118 55.0667 124.251 56.2167 124.518 56.95C124.818 57.65 125.351 58 126.118 58C126.484 58 126.801 57.9333 127.068 57.8C127.368 57.6667 127.634 57.5167 127.868 57.35C128.101 57.15 128.301 56.9833 128.468 56.85C128.668 56.7167 128.851 56.65 129.018 56.65C129.351 56.65 129.518 56.8833 129.518 57.35C129.518 57.5833 129.368 57.9 129.068 58.3C128.768 58.7 128.351 59.1 127.818 59.5C127.318 59.9 126.718 60.2333 126.018 60.5C125.351 60.8 124.634 60.95 123.868 60.95C121.201 60.95 119.868 58.8333 119.868 54.6V52.5L120.068 41.75C120.068 41.2833 120.034 40.9167 119.968 40.65C119.901 40.35 119.701 40.2 119.368 40.2H118.468C117.868 40.2 117.568 39.9833 117.568 39.55C117.568 39.35 117.651 39.1667 117.818 39C117.984 38.8333 118.218 38.65 118.518 38.45C118.818 38.25 119.151 38 119.518 37.7C119.918 37.4 120.351 37 120.818 36.5C121.618 35.5667 122.201 34.7667 122.568 34.1C122.968 33.4333 123.318 33.1 123.618 33.1C123.851 33.1 123.984 33.2167 124.018 33.45C124.084 33.65 124.118 33.9333 124.118 34.3ZM139.606 44.35C141.239 44.35 142.423 44.1667 143.156 43.8C143.923 43.4333 144.306 42.7 144.306 41.6C144.306 40.7667 143.956 40 143.256 39.3C142.589 38.6 141.723 38.25 140.656 38.25C139.489 38.25 138.473 38.7 137.606 39.6C136.739 40.5 136.173 41.6333 135.906 43L135.756 43.8V43.9C135.756 44.2 135.956 44.35 136.356 44.35H139.606ZM147.006 45.9H135.956C135.689 45.9 135.523 45.95 135.456 46.05C135.389 46.15 135.356 46.3667 135.356 46.7V47.9C135.356 51 136.006 53.45 137.306 55.25C138.639 57.05 140.356 57.95 142.456 57.95C143.389 57.95 144.189 57.8 144.856 57.5C145.556 57.2 146.123 56.8667 146.556 56.5C147.023 56.1333 147.373 55.8 147.606 55.5C147.873 55.2 148.056 55.05 148.156 55.05C148.423 55.05 148.556 55.2333 148.556 55.6C148.556 55.9667 148.356 56.45 147.956 57.05C147.556 57.65 146.973 58.25 146.206 58.85C145.473 59.4167 144.589 59.9167 143.556 60.35C142.523 60.7833 141.356 61 140.056 61C138.689 61 137.439 60.7167 136.306 60.15C135.206 59.6167 134.256 58.8333 133.456 57.8C132.656 56.7667 132.039 55.5167 131.606 54.05C131.173 52.5833 130.956 50.9333 130.956 49.1C130.956 47.2667 131.189 45.6167 131.656 44.15C132.156 42.65 132.839 41.3833 133.706 40.35C134.573 39.3167 135.589 38.5167 136.756 37.95C137.956 37.3833 139.256 37.1 140.656 37.1C141.856 37.1 142.956 37.3167 143.956 37.75C144.956 38.15 145.806 38.7 146.506 39.4C147.206 40.1 147.739 40.9167 148.106 41.85C148.506 42.7833 148.706 43.7833 148.706 44.85C148.706 45.2833 148.573 45.5667 148.306 45.7C148.039 45.8333 147.606 45.9 147.006 45.9ZM157.667 38V39.95C157.667 40.25 157.717 40.4 157.817 40.4C157.884 40.4 158.034 40.2833 158.267 40.05L159.267 38.95C160.334 37.6833 161.467 37.05 162.667 37.05C163.567 37.05 164.334 37.3833 164.967 38.05C165.601 38.7167 165.917 39.55 165.917 40.55C165.917 41.2833 165.684 41.8833 165.217 42.35C164.784 42.8167 164.251 43.05 163.617 43.05C163.117 43.05 162.684 42.9333 162.317 42.7C161.951 42.4333 161.617 42.15 161.317 41.85C161.017 41.55 160.734 41.2833 160.467 41.05C160.201 40.7833 159.934 40.65 159.667 40.65C158.434 40.65 157.817 42.2167 157.817 45.35V56.2C157.817 56.7667 157.884 57.2 158.017 57.5C158.151 57.7667 158.417 57.9833 158.817 58.15C159.217 58.35 159.584 58.4833 159.917 58.55C160.251 58.5833 160.517 58.6333 160.717 58.7C160.951 58.7333 161.134 58.8 161.267 58.9C161.401 59 161.467 59.1833 161.467 59.45C161.467 59.65 161.367 59.8333 161.167 60C161.001 60.1333 160.734 60.2 160.367 60.2C159.701 60.2 158.967 60.1333 158.167 60C157.401 59.9 156.584 59.85 155.717 59.85C154.917 59.85 154.167 59.9 153.467 60C152.801 60.1 152.201 60.15 151.667 60.15C151.067 60.15 150.767 59.8833 150.767 59.35C150.767 59.1167 150.817 58.9667 150.917 58.9C151.017 58.8 151.151 58.7333 151.317 58.7C151.484 58.6333 151.684 58.5833 151.917 58.55C152.151 58.5167 152.401 58.4333 152.667 58.3C153.134 58.0667 153.401 57.8333 153.467 57.6C153.567 57.3333 153.617 56.9667 153.617 56.5V43.7C153.617 43.1 153.501 42.7 153.267 42.5C153.067 42.3 152.834 42.1667 152.567 42.1C152.334 42.0333 152.101 41.9833 151.867 41.95C151.667 41.8833 151.567 41.7 151.567 41.4C151.567 41.0333 151.784 40.7667 152.217 40.6C152.651 40.4 153.217 40.0667 153.917 39.6C154.884 38.9333 155.584 38.3333 156.017 37.8C156.484 37.2333 156.867 36.95 157.167 36.95C157.501 36.95 157.667 37.3 157.667 38Z" fill="url(#paint0_linear_46_89)"/>
<path d="M87.7 71.65V98.2C87.7 99.3 88.0167 100 88.65 100.3C88.9167 100.433 89.1833 100.517 89.45 100.55C89.7167 100.55 89.95 100.567 90.15 100.6C90.3833 100.633 90.5667 100.717 90.7 100.85C90.8333 100.95 90.9 101.15 90.9 101.45C90.9 101.917 90.5667 102.15 89.9 102.15C89.3333 102.15 88.6833 102.1 87.95 102C87.2167 101.9 86.4333 101.85 85.6 101.85C84.7333 101.85 83.95 101.9 83.25 102C82.5833 102.1 82.0167 102.15 81.55 102.15C80.95 102.15 80.65 101.883 80.65 101.35C80.65 100.883 80.8167 100.65 81.15 100.65C81.5167 100.65 81.9667 100.55 82.5 100.35C82.9667 100.183 83.25 99.9667 83.35 99.7C83.45 99.4 83.5 99 83.5 98.5V72.5C83.5 72.0667 83.3833 71.75 83.15 71.55C82.95 71.35 82.7 71.2 82.4 71.1C82.1333 71 81.8833 70.9 81.65 70.8C81.45 70.7 81.35 70.55 81.35 70.35C81.35 69.9833 81.5667 69.75 82 69.65C82.4667 69.5167 83 69.3333 83.6 69.1C84.7667 68.6667 85.6167 68.2667 86.15 67.9C86.7167 67.5 87.0833 67.3 87.25 67.3C87.5167 67.3 87.6833 67.3833 87.75 67.55C87.8167 67.7167 87.85 67.95 87.85 68.25C87.85 68.6833 87.8167 69.1833 87.75 69.75C87.7167 70.3167 87.7 70.95 87.7 71.65ZM97.0793 70.4C97.6793 70.4 98.196 70.6833 98.6293 71.25C99.0626 71.8167 99.2793 72.45 99.2793 73.15C99.2793 73.85 99.0626 74.4833 98.6293 75.05C98.196 75.6167 97.6793 75.9 97.0793 75.9C96.4793 75.9 95.9626 75.6167 95.5293 75.05C95.096 74.4833 94.8793 73.85 94.8793 73.15C94.8793 72.45 95.096 71.8167 95.5293 71.25C95.9626 70.6833 96.4793 70.4 97.0793 70.4ZM98.9793 80V98.25C98.9793 98.85 99.0293 99.3 99.1293 99.6C99.2626 99.9 99.4793 100.133 99.7793 100.3C100.046 100.433 100.296 100.517 100.529 100.55C100.796 100.583 101.013 100.633 101.179 100.7C101.379 100.733 101.529 100.8 101.629 100.9C101.763 101 101.829 101.167 101.829 101.4C101.829 101.933 101.529 102.2 100.929 102.2C100.429 102.2 99.8293 102.133 99.1293 102C98.4293 101.9 97.6793 101.85 96.8793 101.85C96.0126 101.85 95.2793 101.9 94.6793 102C94.0793 102.133 93.596 102.2 93.2293 102.2C92.7293 102.2 92.4793 101.917 92.4793 101.35C92.4793 101.117 92.5126 100.95 92.5793 100.85C92.6793 100.75 92.796 100.683 92.9293 100.65C93.096 100.617 93.2626 100.6 93.4293 100.6C93.596 100.567 93.7793 100.5 93.9793 100.4C94.346 100.2 94.5626 99.9667 94.6293 99.7C94.7293 99.4 94.7793 98.9167 94.7793 98.25V86.45C94.7793 85.55 94.6626 84.95 94.4293 84.65C94.2293 84.35 93.996 84.1667 93.7293 84.1C93.496 84 93.2626 83.95 93.0293 83.95C92.8293 83.9167 92.7293 83.7333 92.7293 83.4C92.7293 83.0333 92.946 82.7333 93.3793 82.5C93.846 82.2667 94.496 81.9167 95.3293 81.45C95.8293 81.15 96.246 80.85 96.5793 80.55C96.946 80.25 97.246 79.9833 97.4793 79.75C97.7126 79.5167 97.896 79.3333 98.0293 79.2C98.196 79.0333 98.346 78.95 98.4793 78.95C98.8126 78.95 98.9793 79.3 98.9793 80ZM110.764 79.1C112.864 79.1 114.298 79.3 115.064 79.7C115.831 80.1 116.214 80.7333 116.214 81.6C116.214 82.7667 116.164 83.6333 116.064 84.2C115.964 84.7333 115.748 85 115.414 85C115.048 85 114.831 84.7667 114.764 84.3C114.698 83.8333 114.464 83.25 114.064 82.55C113.231 81.1167 112.131 80.4 110.764 80.4C109.798 80.4 109.014 80.6833 108.414 81.25C107.848 81.7833 107.564 82.4833 107.564 83.35C107.564 83.9167 107.681 84.4 107.914 84.8C108.148 85.1667 108.481 85.5167 108.914 85.85C109.348 86.1833 109.864 86.5167 110.464 86.85C111.098 87.15 111.798 87.5 112.564 87.9C114.198 88.7667 115.398 89.75 116.164 90.85C116.931 91.9167 117.314 93.2667 117.314 94.9C117.314 96.1667 117.114 97.3 116.714 98.3C116.348 99.3 115.814 100.15 115.114 100.85C114.414 101.517 113.581 102.033 112.614 102.4C111.681 102.767 110.648 102.95 109.514 102.95C108.381 102.95 107.364 102.817 106.464 102.55C105.564 102.317 104.881 102.05 104.414 101.75C104.114 101.583 103.931 101.367 103.864 101.1C103.798 100.833 103.764 100.467 103.764 100V98.75C103.764 97.3833 103.798 96.4 103.864 95.8C103.931 95.1667 104.148 94.85 104.514 94.85C104.748 94.85 104.914 94.9333 105.014 95.1C105.114 95.2667 105.198 95.5167 105.264 95.85C105.364 96.15 105.464 96.5333 105.564 97C105.698 97.4333 105.898 97.9333 106.164 98.5C107.098 100.533 108.431 101.55 110.164 101.55C111.231 101.55 112.098 101.183 112.764 100.45C113.464 99.7167 113.814 98.7333 113.814 97.5C113.814 96.8667 113.698 96.3167 113.464 95.85C113.264 95.35 112.948 94.9167 112.514 94.55C112.114 94.15 111.614 93.7833 111.014 93.45C110.414 93.0833 109.748 92.7 109.014 92.3C108.181 91.8667 107.448 91.45 106.814 91.05C106.181 90.6167 105.648 90.1667 105.214 89.7C104.781 89.2 104.448 88.65 104.214 88.05C104.014 87.4167 103.914 86.6833 103.914 85.85C103.914 83.7833 104.548 82.15 105.814 80.95C107.114 79.7167 108.764 79.1 110.764 79.1ZM127.171 79.1C129.271 79.1 130.704 79.3 131.471 79.7C132.237 80.1 132.621 80.7333 132.621 81.6C132.621 82.7667 132.571 83.6333 132.471 84.2C132.371 84.7333 132.154 85 131.821 85C131.454 85 131.237 84.7667 131.171 84.3C131.104 83.8333 130.871 83.25 130.471 82.55C129.637 81.1167 128.537 80.4 127.171 80.4C126.204 80.4 125.421 80.6833 124.821 81.25C124.254 81.7833 123.971 82.4833 123.971 83.35C123.971 83.9167 124.087 84.4 124.321 84.8C124.554 85.1667 124.887 85.5167 125.321 85.85C125.754 86.1833 126.271 86.5167 126.871 86.85C127.504 87.15 128.204 87.5 128.971 87.9C130.604 88.7667 131.804 89.75 132.571 90.85C133.337 91.9167 133.721 93.2667 133.721 94.9C133.721 96.1667 133.521 97.3 133.121 98.3C132.754 99.3 132.221 100.15 131.521 100.85C130.821 101.517 129.987 102.033 129.021 102.4C128.087 102.767 127.054 102.95 125.921 102.95C124.787 102.95 123.771 102.817 122.871 102.55C121.971 102.317 121.287 102.05 120.821 101.75C120.521 101.583 120.337 101.367 120.271 101.1C120.204 100.833 120.171 100.467 120.171 100V98.75C120.171 97.3833 120.204 96.4 120.271 95.8C120.337 95.1667 120.554 94.85 120.921 94.85C121.154 94.85 121.321 94.9333 121.421 95.1C121.521 95.2667 121.604 95.5167 121.671 95.85C121.771 96.15 121.871 96.5333 121.971 97C122.104 97.4333 122.304 97.9333 122.571 98.5C123.504 100.533 124.837 101.55 126.571 101.55C127.637 101.55 128.504 101.183 129.171 100.45C129.871 99.7167 130.221 98.7333 130.221 97.5C130.221 96.8667 130.104 96.3167 129.871 95.85C129.671 95.35 129.354 94.9167 128.921 94.55C128.521 94.15 128.021 93.7833 127.421 93.45C126.821 93.0833 126.154 92.7 125.421 92.3C124.587 91.8667 123.854 91.45 123.221 91.05C122.587 90.6167 122.054 90.1667 121.621 89.7C121.187 89.2 120.854 88.65 120.621 88.05C120.421 87.4167 120.321 86.6833 120.321 85.85C120.321 83.7833 120.954 82.15 122.221 80.95C123.521 79.7167 125.171 79.1 127.171 79.1Z" fill="#707342"/>
<path d="M43.032 56.408C44.9093 56.664 46.4027 56.792 47.512 56.792C49.7307 56.792 51.7787 56.3227 53.656 55.384C55.6187 54.4453 57.3253 53.1653 58.776 51.544C60.2267 49.8373 61.3787 47.7893 62.232 45.4C63.0853 43.0107 63.512 40.3653 63.512 37.464C63.512 31.2347 60.7387 28.12 55.192 28.12C53.912 28.12 51.8213 28.376 48.92 28.888C47.7253 33.24 46.6587 37.72 45.72 42.328C44.7813 46.8507 43.8853 51.544 43.032 56.408ZM55.832 58.584V59.48C68.888 59.992 75.416 66.648 75.416 79.448C75.416 87.0427 73.1547 92.9307 68.632 97.112C64.1093 101.293 57.4533 103.384 48.664 103.384C44.568 103.384 40.5573 103.213 36.632 102.872C32.7067 102.445 28.8667 102.232 25.112 102.232C21.6133 102.232 18.84 102.445 16.792 102.872C14.744 103.299 13.2507 103.512 12.312 103.512C10.0933 103.512 8.984 102.616 8.984 100.824C8.984 99.4587 9.368 98.648 10.136 98.392C10.904 98.0507 11.9707 97.752 13.336 97.496C15.2987 97.0693 16.664 96.344 17.432 95.32C18.2 94.2107 18.8827 92.4187 19.48 89.944L30.744 40.152C31.256 38.0187 31.5973 36.2267 31.768 34.776C32.024 33.3253 32.152 32.2587 32.152 31.576C32.152 29.528 31.2987 28.1627 29.592 27.48C28.3973 27.0533 27.4587 26.7973 26.776 26.712C26.0933 26.5413 25.752 25.7307 25.752 24.28C25.752 23.256 25.9653 22.5733 26.392 22.232C26.904 21.8053 27.672 21.592 28.696 21.592C29.208 21.592 31.0427 21.8053 34.2 22.232C37.3573 22.5733 41.88 22.744 47.768 22.744C49.816 22.744 52.0347 22.6587 54.424 22.488C56.8987 22.3173 59.5867 22.232 62.488 22.232C68.376 22.232 72.7707 23.5973 75.672 26.328C78.6587 29.0587 80.152 33.0693 80.152 38.36C80.152 44.1627 77.976 48.984 73.624 52.824C69.3573 56.5787 63.4267 58.4987 55.832 58.584ZM36.12 88.152C35.864 89.176 35.6507 90.1573 35.48 91.096C35.3093 91.9493 35.224 92.7173 35.224 93.4C35.224 96.728 37.4853 98.392 42.008 98.392C44.312 98.392 46.4453 97.88 48.408 96.856C50.456 95.7467 52.2053 94.2533 53.656 92.376C55.192 90.4133 56.344 88.1093 57.112 85.464C57.9653 82.8187 58.392 79.9173 58.392 76.76C58.392 71.9813 57.368 68.3973 55.32 66.008C53.272 63.5333 50.3707 62.296 46.616 62.296C46.104 62.296 45.4213 62.3387 44.568 62.424C43.8 62.5093 42.8187 62.6373 41.624 62.808L36.12 88.152Z" fill="#636541"/>
<path d="M145.651 70.7482C145.397 70.4831 145.207 70.1752 145.081 69.8246C144.957 69.4574 144.917 69.0835 144.962 68.7028C145.063 67.8587 145.314 67.2256 145.717 66.8034C146.121 66.3647 146.563 66.1739 147.043 66.2309C147.474 66.2819 147.809 66.498 148.049 66.8789C148.274 67.2414 148.353 67.7122 148.284 68.2915C148.243 68.639 148.151 68.989 148.008 69.3413C147.849 69.6917 147.634 70.0186 147.363 70.3221L146.695 71.0736C146.576 71.2273 146.442 71.2953 146.293 71.2776C146.177 71.2639 146.083 71.2107 146.01 71.1181L145.651 70.7482ZM145.085 71.4867L145.549 71.8187C145.672 71.9172 145.728 72.0078 145.718 72.0905C145.71 72.1567 145.678 72.22 145.62 72.2803L142.596 75.6976C142.539 75.758 142.477 75.7842 142.411 75.7763C142.345 75.7685 142.292 75.7202 142.252 75.6316L141.657 74.277C141.343 73.5348 141.203 73.0147 141.238 72.7168C141.264 72.5016 141.355 72.3698 141.512 72.3213C141.671 72.2562 141.842 72.2262 142.026 72.2312C142.195 72.2178 142.357 72.2034 142.509 72.1879C142.664 72.156 142.75 72.0738 142.765 71.9414C142.793 71.7097 142.641 71.5742 142.31 71.5349C142.161 71.5172 141.902 71.5116 141.532 71.518C141.145 71.5225 140.654 71.4893 140.058 71.4186C139.661 71.3714 139.34 71.3166 139.096 71.254C138.835 71.1895 138.655 71.1513 138.556 71.1395C138.34 71.114 138.222 71.1922 138.2 71.3743C138.191 71.457 138.207 71.5262 138.251 71.5817C138.297 71.6207 138.368 71.6627 138.463 71.7076C138.558 71.7525 138.669 71.8076 138.796 71.873C138.908 71.9198 139.034 71.9852 139.175 72.0691C139.815 72.4806 140.528 73.5388 141.316 75.2435L141.674 76.0414C141.752 76.2352 141.787 76.3652 141.779 76.4314C141.765 76.5473 141.73 76.6354 141.672 76.6957L140.046 78.5167C139.619 79.0031 139.235 79.3435 138.893 79.5378C138.551 79.7322 138.266 79.8663 138.039 79.9401C137.796 80.0119 137.605 80.0647 137.467 80.0987C137.33 80.116 137.255 80.1827 137.242 80.2985C137.21 80.5633 137.368 80.7163 137.716 80.7576C137.931 80.7831 138.257 80.7966 138.693 80.7981C139.115 80.781 139.656 80.8117 140.318 80.8903C140.848 80.9532 141.299 81.0403 141.672 81.1517C142.03 81.2446 142.3 81.3018 142.482 81.3234C142.582 81.3352 142.677 81.3129 142.767 81.2566C142.841 81.1982 142.884 81.1194 142.896 81.0201C142.91 80.9042 142.869 80.8239 142.774 80.779C142.68 80.7175 142.577 80.6717 142.463 80.6414C142.351 80.5945 142.249 80.5321 142.158 80.4541C142.066 80.3761 142.03 80.2544 142.05 80.0888C142.062 79.9895 142.126 79.8713 142.243 79.7341L142.8 79.0702C142.839 79.0245 142.885 78.9963 142.936 78.9856C142.973 78.9565 143.008 78.9438 143.041 78.9478C143.074 78.9517 143.149 79.0277 143.266 79.1758L143.569 79.5895C144.174 80.4333 144.768 81.0829 145.352 81.5382C145.921 81.975 146.62 82.2425 147.447 82.3408C147.977 82.4036 148.479 82.3457 148.953 82.1671C149.409 82.003 149.825 81.7503 150.201 81.4089C150.563 81.049 150.866 80.6151 151.111 80.1071C151.356 79.5991 151.515 79.0389 151.587 78.4265C151.811 76.5398 151.091 74.969 149.428 73.7141L148.714 73.1511C148.544 73.0302 148.466 72.9118 148.479 72.7959C148.487 72.7297 148.532 72.6343 148.614 72.5098L149.035 71.9304C149.335 71.5296 149.583 71.1311 149.781 70.735C149.963 70.337 150.082 69.898 150.139 69.418C150.196 68.9381 150.158 68.4804 150.025 68.045C149.894 67.5931 149.689 67.1995 149.41 66.8643C149.116 66.5105 148.765 66.2171 148.357 65.9839C147.931 65.7488 147.462 65.6008 146.949 65.5399C146.436 65.479 145.955 65.5058 145.505 65.6202C145.057 65.7181 144.667 65.89 144.336 66.136C144.004 66.382 143.733 66.6855 143.523 67.0465C143.314 67.391 143.184 67.7784 143.133 68.2087C143.056 68.8541 143.181 69.4312 143.506 69.9398C143.816 70.4464 144.342 70.962 145.085 71.4867ZM147.626 73.6261C147.685 73.5492 147.773 73.5176 147.889 73.5314C147.955 73.5393 148.018 73.5719 148.078 73.6295L148.577 74.0915C148.925 74.418 149.189 74.8774 149.37 75.4696C149.537 76.0433 149.579 76.6859 149.494 77.3976C149.37 78.4403 149.023 79.2466 148.452 79.8166C147.88 80.3866 147.198 80.6244 146.403 80.5301C145.642 80.4397 144.958 79.9809 144.351 79.1536L143.854 78.4652C143.796 78.3911 143.774 78.2879 143.79 78.1555C143.796 78.1058 143.84 78.0187 143.922 77.8942L147.626 73.6261Z" fill="#A3A76C"/>
</g>
<defs>
<linearGradient id="paint0_linear_46_89" x1="80" y1="53.6197" x2="166" y2="31.3803" gradientUnits="userSpaceOnUse">
<stop stop-color="#B6BB79"/>
<stop offset="1" stop-color="#535537"/>
</linearGradient>
<clipPath id="clip0_46_89">
<rect width="181" height="118" fill="white"/>
</clipPath>
</defs>
</svg>
