<svg width="20" height="16" viewBox="0 0 20 16" fill="none" xmlns="http://www.w3.org/2000/svg">
<path d="M1.903 0.00800855L2.086 8.66083e-06H12.914C13.1874 -0.000780283 13.4583 0.0523388 13.7111 0.156328C13.964 0.260316 14.1939 0.413135 14.3876 0.606041C14.5813 0.798947 14.7352 1.02816 14.8402 1.28056C14.9453 1.53296 14.9996 1.8036 15 2.07701V3.00001H16.5C18.417 3.00001 20 4.477 20 6.333V8.667C20 10.523 18.417 12 16.5 12H14.837C14.5417 13.1461 13.8733 14.1613 12.9372 14.8856C12.0011 15.6098 10.8506 16.0019 9.667 16H5.333C2.389 16 0 13.625 0 10.692V2.07401C0.00161372 1.55411 0.197867 1.05367 0.550095 0.671273C0.902324 0.288875 1.38499 0.0522473 1.903 0.00800855ZM15 10H16.5C17.343 10 18 9.387 18 8.667V6.333C18 5.613 17.343 5 16.5 5H15V10Z" fill="url(#paint0_linear_132_3309)"/>
<defs>
<linearGradient id="paint0_linear_132_3309" x1="10.8361" y1="-2.64817e-08" x2="9.16389" y2="16" gradientUnits="userSpaceOnUse">
<stop stop-color="#7D5A5A"/>
<stop offset="1" stop-color="#FFF5E4"/>
</linearGradient>
</defs>
</svg>
