<svg width="18" height="20" viewBox="0 0 18 20" fill="none" xmlns="http://www.w3.org/2000/svg">
<path d="M3 0C3.24493 3.23106e-05 3.48134 0.0899562 3.66437 0.252715C3.84741 0.415475 3.96434 0.639749 3.993 0.883L4 1V2.068L17.071 3.003C17.3279 3.0212 17.5679 3.13782 17.741 3.32858C17.914 3.51934 18.0068 3.76952 18 4.027L17.99 4.141L16.99 11.141C16.9589 11.3602 16.8559 11.5629 16.6972 11.7173C16.5384 11.8716 16.333 11.969 16.113 11.994L16 12H4V14H14C14.5858 14 15.1588 14.1716 15.6483 14.4935C16.1378 14.8154 16.5223 15.2736 16.7544 15.8115C16.9865 16.3494 17.056 16.9435 16.9543 17.5205C16.8527 18.0974 16.5844 18.632 16.1824 19.0582C15.7805 19.4844 15.2626 19.7836 14.6926 19.9189C14.1226 20.0542 13.5254 20.0196 12.9748 19.8195C12.4243 19.6193 11.9443 19.2623 11.5943 18.7926C11.2442 18.3228 11.0394 17.7608 11.005 17.176L11 17L11.005 16.824C11.023 16.5353 11.0783 16.2607 11.171 16H5.829C5.97173 16.4048 6.02591 16.8356 5.9879 17.2632C5.94988 17.6907 5.82055 18.1052 5.60863 18.4785C5.39672 18.8518 5.10716 19.1753 4.75952 19.4271C4.41187 19.6789 4.01424 19.8532 3.59347 19.9381C3.1727 20.0231 2.7386 20.0168 2.32048 19.9196C1.90237 19.8224 1.50998 19.6366 1.16981 19.3748C0.829653 19.113 0.549642 18.7812 0.348695 18.4019C0.147747 18.0225 0.0305438 17.6045 0.00500011 17.176L0 17L0.00500011 16.824C0.0393466 16.2344 0.246981 15.668 0.601876 15.1959C0.956772 14.7237 1.44314 14.3669 2 14.17V2H1C0.755067 1.99997 0.518663 1.91004 0.335628 1.74728C0.152593 1.58453 0.0356572 1.36025 0.00699997 1.117L0 1C3.23106e-05 0.755067 0.0899562 0.518663 0.252715 0.335628C0.415475 0.152593 0.639749 0.0356572 0.883 0.00699997L1 0H3ZM3 16C2.73478 16 2.48043 16.1054 2.29289 16.2929C2.10536 16.4804 2 16.7348 2 17C2 17.2652 2.10536 17.5196 2.29289 17.7071C2.48043 17.8946 2.73478 18 3 18C3.26522 18 3.51957 17.8946 3.70711 17.7071C3.89464 17.5196 4 17.2652 4 17C4 16.7348 3.89464 16.4804 3.70711 16.2929C3.51957 16.1054 3.26522 16 3 16ZM14 16C13.7348 16 13.4804 16.1054 13.2929 16.2929C13.1054 16.4804 13 16.7348 13 17C13 17.2652 13.1054 17.5196 13.2929 17.7071C13.4804 17.8946 13.7348 18 14 18C14.2652 18 14.5196 17.8946 14.7071 17.7071C14.8946 17.5196 15 17.2652 15 17C15 16.7348 14.8946 16.4804 14.7071 16.2929C14.5196 16.1054 14.2652 16 14 16Z" fill="url(#paint0_linear_40_95)"/>
<defs>
<linearGradient id="paint0_linear_40_95" x1="10.006" y1="9.75163e-08" x2="7.99434" y2="20" gradientUnits="userSpaceOnUse">
<stop stop-color="#7D5A5A"/>
<stop offset="1" stop-color="#FFF5E4"/>
</linearGradient>
</defs>
</svg>
