<svg width="16" height="20" viewBox="0 0 16 20" fill="none" xmlns="http://www.w3.org/2000/svg">
<path d="M13 0C13.7956 0 14.5587 0.316068 15.1213 0.878673C15.6839 1.44128 16 2.20433 16 2.99998V18.9999C16 19.1809 15.9509 19.3586 15.8579 19.5139C15.7648 19.6692 15.6314 19.7963 15.4718 19.8817C15.3121 19.9671 15.1323 20.0076 14.9515 19.9988C14.7707 19.99 14.5956 19.9323 14.445 19.8319L12.127 18.2869L10.707 19.7069C10.5348 19.879 10.3057 19.9825 10.0627 19.9977C9.81966 20.013 9.5794 19.9391 9.387 19.7899L9.293 19.7069L8 18.4149L6.707 19.7069C6.53481 19.879 6.30571 19.9825 6.06268 19.9977C5.81966 20.013 5.5794 19.9391 5.387 19.7899L5.293 19.7069L3.872 18.2869L1.555 19.8319L1.536 19.8439L1.482 19.8739L1.454 19.8909L1.4 19.9138L1.35 19.9369L1.301 19.9518L1.241 19.9709L1.189 19.9798L1.132 19.9908L1.048 19.9968L1.022 19.9998H1L0.951 19.9968H0.912L0.899 19.9938H0.883L0.842 19.9858L0.804 19.9809L0.789 19.9758L0.771 19.9739L0.737 19.9628L0.697 19.9528L0.678 19.9458L0.663 19.9418L0.634 19.9289L0.594 19.9138L0.573 19.9029L0.56 19.8979L0.532 19.8819L0.496 19.8639L0.482 19.8539L0.464 19.8439L0.426 19.8169L0.404 19.8029L0.394 19.7939L0.374 19.7799L0.329 19.7389L0.317 19.7309L0.293 19.7069L0.258 19.6679L0.238 19.6479L0.231 19.6369L0.22 19.6249L0.188 19.5799L0.168 19.5549L0.156 19.5359L0.126 19.4819L0.109 19.4539L0.086 19.3999L0.0630002 19.3499C0.0496363 19.3145 0.0382844 19.2785 0.0289998 19.2419L0.0190001 19.1849L0.00899982 19.1319L0 18.9999V2.99998C0 2.20433 0.316071 1.44128 0.87868 0.878673C1.44129 0.316068 2.20435 0 3 0H13ZM11 11.9999H9C8.73478 11.9999 8.48043 12.1053 8.29289 12.2928C8.10536 12.4803 8 12.7347 8 12.9999C8 13.2651 8.10536 13.5195 8.29289 13.707C8.48043 13.8945 8.73478 13.9999 9 13.9999H11C11.2652 13.9999 11.5196 13.8945 11.7071 13.707C11.8946 13.5195 12 13.2651 12 12.9999C12 12.7347 11.8946 12.4803 11.7071 12.2928C11.5196 12.1053 11.2652 11.9999 11 11.9999ZM11 7.99994H5C4.73478 7.99994 4.48043 8.1053 4.29289 8.29283C4.10536 8.48037 4 8.73472 4 8.99993C4 9.26515 4.10536 9.5195 4.29289 9.70703C4.48043 9.89457 4.73478 9.99992 5 9.99992H11C11.2652 9.99992 11.5196 9.89457 11.7071 9.70703C11.8946 9.5195 12 9.26515 12 8.99993C12 8.73472 11.8946 8.48037 11.7071 8.29283C11.5196 8.1053 11.2652 7.99994 11 7.99994ZM11 3.99997H5C4.73478 3.99997 4.48043 4.10533 4.29289 4.29286C4.10536 4.4804 4 4.73475 4 4.99996C4 5.26518 4.10536 5.51953 4.29289 5.70706C4.48043 5.8946 4.73478 5.99995 5 5.99995H11C11.2652 5.99995 11.5196 5.8946 11.7071 5.70706C11.8946 5.51953 12 5.26518 12 4.99996C12 4.73475 11.8946 4.4804 11.7071 4.29286C11.5196 4.10533 11.2652 3.99997 11 3.99997Z" fill="url(#paint0_linear_114_3311)"/>
<defs>
<linearGradient id="paint0_linear_114_3311" x1="9.05921" y1="6.66775e-08" x2="6.9408" y2="20" gradientUnits="userSpaceOnUse">
<stop stop-color="#7D5A5A"/>
<stop offset="1" stop-color="#FFF5E4"/>
</linearGradient>
</defs>
</svg>
